<svg xmlns="http://www.w3.org/2000/svg" xmlns:xlink="http://www.w3.org/1999/xlink" width="15" height="15" viewBox="0 0 15 15">
  <defs>
    <clipPath id="clip-exe">
      <rect width="15" height="15"/>
    </clipPath>
  </defs>
  <g id="exe" clip-path="url(#clip-exe)">
    <path id="中マド_1" data-name="中マド 1" d="M-63.989-60.978A6.018,6.018,0,0,1-70-66.989,6.018,6.018,0,0,1-63.989-73a6.018,6.018,0,0,1,6.011,6.011A6.018,6.018,0,0,1-63.989-60.978Zm-1-9.052a1,1,0,0,0-1,1v4.077a1.006,1.006,0,0,0,1,1,.988.988,0,0,0,.584-.193l2.8-2.039a.989.989,0,0,0,.412-.808.99.99,0,0,0-.412-.81l-2.8-2.039A.989.989,0,0,0-64.987-70.029Z" transform="translate(71.475 74.475)" fill="#eaeaea"/>
  </g>
</svg>
